<?xml version="1.0" encoding="utf-8"?>
<!-- Generator: Adobe Illustrator 26.5.0, SVG Export Plug-In . SVG Version: 6.00 Build 0)  -->
<svg version="1.1" id="Layer_1" xmlns="http://www.w3.org/2000/svg" xmlns:xlink="http://www.w3.org/1999/xlink" x="0px" y="0px"
	 viewBox="0 0 570 570" style="enable-background:new 0 0 570 570;" xml:space="preserve">
<style type="text/css">
	.st0{fill:none;}
	.st1{fill:#0A3929;}
</style>
<g id="monsha2at" transform="translate(-3243 -736)">
	<rect id="Rectangle_2872" x="3243" y="736" class="st0" width="570" height="570"/>
	<g id="monsha2at-2" transform="translate(3250 743)">
		<path id="Path_437" class="st1" d="M540.6,490.1h-10.1V96c0-5.6-4.5-10.1-10.1-10.1l0,0H409.2V65.6h10.1c5.6,0,10.1-4.5,10.1-10.1
			V15.1c0-5.6-4.5-10.1-10.1-10.1c0,0,0,0,0,0h-283c-5.6,0-10.1,4.5-10.1,10.1c0,0,0,0,0,0v40.4c0,5.6,4.5,10.1,10.1,10.1l0,0h10.1
			v20.2H35.3c-5.6,0-10.1,4.5-10.1,10.1l0,0v394.1H15.1c-5.6,0-10.1,4.5-10.1,10.1v40.4c0,5.6,4.5,10.1,10.1,10.1c0,0,0,0,0,0h525.5
			c5.6,0,10.1-4.5,10.1-10.1c0,0,0,0,0,0v-40.4C550.7,494.6,546.2,490.1,540.6,490.1C540.6,490.1,540.6,490.1,540.6,490.1z
			 M510.3,106.1v384H409.2v-384H510.3z M146.5,25.2h262.8v20.2H146.5V25.2z M45.4,106.1h101.1v384H45.4V106.1z M25.2,510.3h121.3
			v20.2H25.2V510.3z M227.3,530.5V409.2h40.4v121.3H227.3z M288,530.5V409.2h40.4v121.3H288z M348.6,530.5V399.1
			c0-5.6-4.5-10.1-10.1-10.1H217.2c-5.6,0-10.1,4.5-10.1,10.1v131.4h-40.4V65.6H389v464.9H348.6z M530.5,530.5H409.2v-20.2h121.3
			L530.5,530.5z"/>
		<path id="Path_438" class="st1" d="M255.5,209.3h-36.9c-5.1,0-9.2,4.1-9.2,9.2c0,0,0,0,0,0v36.9c0,5.1,4.1,9.2,9.2,9.2
			c0,0,0,0,0,0h36.9c5.1,0,9.2-4.1,9.2-9.2c0,0,0,0,0,0v-36.9C264.7,213.4,260.6,209.3,255.5,209.3
			C255.5,209.3,255.5,209.3,255.5,209.3z M246.2,246.2h-18.5v-18.5h18.5V246.2z"/>
		<path id="Path_439" class="st1" d="M337.2,209.3h-36.9c-5.1,0-9.2,4.1-9.2,9.2c0,0,0,0,0,0v36.9c0,5.1,4.1,9.2,9.2,9.2
			c0,0,0,0,0,0h36.9c5.1,0,9.2-4.1,9.2-9.2c0,0,0,0,0,0v-36.9C346.4,213.4,342.3,209.3,337.2,209.3
			C337.2,209.3,337.2,209.3,337.2,209.3z M327.9,246.2h-18.5v-18.5h18.5V246.2z"/>
		<path id="Path_440" class="st1" d="M255.5,291h-36.9c-5.1,0-9.2,4.1-9.2,9.2c0,0,0,0,0,0v36.9c0,5.1,4.1,9.2,9.2,9.2c0,0,0,0,0,0
			h36.9c5.1,0,9.2-4.1,9.2-9.2c0,0,0,0,0,0v-36.9C264.7,295.1,260.6,291,255.5,291C255.5,291,255.5,291,255.5,291z M246.2,327.9
			h-18.5v-18.5h18.5V327.9z"/>
		<path id="Path_441" class="st1" d="M337.2,291h-36.9c-5.1,0-9.2,4.1-9.2,9.2c0,0,0,0,0,0v36.9c0,5.1,4.1,9.2,9.2,9.2c0,0,0,0,0,0
			h36.9c5.1,0,9.2-4.1,9.2-9.2c0,0,0,0,0,0v-36.9C346.4,295.1,342.3,291,337.2,291C337.2,291,337.2,291,337.2,291z M327.9,327.9
			h-18.5v-18.5h18.5V327.9z"/>
		<path id="Path_442" class="st1" d="M255.5,127.6h-36.9c-5.1,0-9.2,4.1-9.2,9.2l0,0v36.9c0,5.1,4.1,9.2,9.2,9.2c0,0,0,0,0,0h36.9
			c5.1,0,9.2-4.1,9.2-9.2c0,0,0,0,0,0v-36.9C264.7,131.7,260.6,127.6,255.5,127.6C255.5,127.6,255.5,127.6,255.5,127.6z
			 M246.2,164.5h-18.5V146h18.5V164.5z"/>
		<path id="Path_443" class="st1" d="M337.2,127.6h-36.9c-5.1,0-9.2,4.1-9.2,9.2l0,0v36.9c0,5.1,4.1,9.2,9.2,9.2c0,0,0,0,0,0h36.9
			c5.1,0,9.2-4.1,9.2-9.2c0,0,0,0,0,0v-36.9C346.4,131.7,342.3,127.6,337.2,127.6C337.2,127.6,337.2,127.6,337.2,127.6z
			 M327.9,164.5h-18.5V146h18.5V164.5z"/>
		<path id="Path_444" class="st1" d="M449.2,346.4h36.9c5.1,0,9.2-4.1,9.2-9.2c0,0,0,0,0,0v-36.9c0-5.1-4.1-9.2-9.2-9.2c0,0,0,0,0,0
			h-36.9c-5.1,0-9.2,4.1-9.2,9.2c0,0,0,0,0,0v36.9C439.9,342.3,444,346.4,449.2,346.4C449.1,346.4,449.1,346.4,449.2,346.4z
			 M458.4,309.5h18.5v18.5h-18.5L458.4,309.5z"/>
		<path id="Path_445" class="st1" d="M449.2,264.7h36.9c5.1,0,9.2-4.1,9.2-9.2c0,0,0,0,0,0v-36.9c0-5.1-4.1-9.2-9.2-9.2c0,0,0,0,0,0
			h-36.9c-5.1,0-9.2,4.1-9.2,9.2c0,0,0,0,0,0v36.9C439.9,260.6,444,264.7,449.2,264.7C449.1,264.7,449.1,264.7,449.2,264.7z
			 M458.4,227.8h18.5v18.5h-18.5L458.4,227.8z"/>
		<path id="Path_446" class="st1" d="M449.2,183h36.9c5.1,0,9.2-4.1,9.2-9.2v0v-36.9c0-5.1-4.1-9.2-9.2-9.2l0,0h-36.9
			c-5.1,0-9.2,4.1-9.2,9.2l0,0v36.9C439.9,178.8,444,183,449.2,183C449.1,183,449.1,183,449.2,183z M458.4,146h18.5v18.5h-18.5
			L458.4,146z"/>
		<path id="Path_447" class="st1" d="M449.2,428.1h36.9c5.1,0,9.2-4.1,9.2-9.2c0,0,0,0,0,0V382c0-5.1-4.1-9.2-9.2-9.2c0,0,0,0,0,0
			h-36.9c-5.1,0-9.2,4.1-9.2,9.2c0,0,0,0,0,0v36.9C439.9,424,444,428.1,449.2,428.1C449.1,428.1,449.1,428.1,449.2,428.1z
			 M458.4,391.2h18.5v18.5h-18.5L458.4,391.2z"/>
		<path id="Path_448" class="st1" d="M106.6,291H69.6c-5.1,0-9.2,4.1-9.2,9.2c0,0,0,0,0,0v36.9c0,5.1,4.1,9.2,9.2,9.2c0,0,0,0,0,0
			h36.9c5.1,0,9.2-4.1,9.2-9.2c0,0,0,0,0,0v-36.9C115.8,295.1,111.7,291,106.6,291C106.6,291,106.6,291,106.6,291z M97.3,327.9H78.9
			v-18.5h18.5V327.9z"/>
		<path id="Path_449" class="st1" d="M106.6,209.3H69.6c-5.1,0-9.2,4.1-9.2,9.2c0,0,0,0,0,0v36.9c0,5.1,4.1,9.2,9.2,9.2c0,0,0,0,0,0
			h36.9c5.1,0,9.2-4.1,9.2-9.2c0,0,0,0,0,0v-36.9C115.8,213.4,111.7,209.3,106.6,209.3C106.6,209.3,106.6,209.3,106.6,209.3z
			 M97.3,246.2H78.9v-18.5h18.5V246.2z"/>
		<path id="Path_450" class="st1" d="M106.6,127.6H69.6c-5.1,0-9.2,4.1-9.2,9.2l0,0v36.9c0,5.1,4.1,9.2,9.2,9.2c0,0,0,0,0,0h36.9
			c5.1,0,9.2-4.1,9.2-9.2c0,0,0,0,0,0v-36.9C115.8,131.7,111.7,127.6,106.6,127.6C106.6,127.6,106.6,127.6,106.6,127.6z M97.3,164.5
			H78.9V146h18.5V164.5z"/>
		<path id="Path_451" class="st1" d="M106.6,372.7H69.6c-5.1,0-9.2,4.1-9.2,9.2c0,0,0,0,0,0v36.9c0,5.1,4.1,9.2,9.2,9.2c0,0,0,0,0,0
			h36.9c5.1,0,9.2-4.1,9.2-9.2c0,0,0,0,0,0V382C115.8,376.9,111.7,372.7,106.6,372.7C106.6,372.7,106.6,372.7,106.6,372.7z
			 M97.3,409.7H78.9v-18.5h18.5V409.7z"/>
	</g>
</g>
</svg>
