<?xml version="1.0" encoding="utf-8"?>
<!-- Generator: Adobe Illustrator 26.5.0, SVG Export Plug-In . SVG Version: 6.00 Build 0)  -->
<svg version="1.1" id="Layer_1" xmlns="http://www.w3.org/2000/svg" xmlns:xlink="http://www.w3.org/1999/xlink" x="0px" y="0px"
	 viewBox="0 0 570 570" style="enable-background:new 0 0 570 570;" xml:space="preserve">
<style type="text/css">
	.st0{fill:none;}
	.st1{fill:#FFFFFF;}
</style>
<g id="mostasmer" transform="translate(-4057 -736)">
	<rect id="Rectangle_2871" x="4057" y="736" class="st0" width="570" height="570"/>
	<g id="mostasmer-2" transform="translate(4070.283 748.509)">
		<g id="Group_108" transform="translate(20.505)">
			<path id="Path_435" class="st1" d="M494,396.5c4.4,0,8-3.6,8-8c0,0,0,0,0,0V278.9c0-8.9-7.2-16.2-16.2-16.2h-43.7
				c-9,0-16.4,7.3-16.4,16.4v50.4h-43.9c-6.2,0-11.8,3.5-14.6,8.9l-13.2-5.1c-4.1-1.6-8.7,0.4-10.3,4.6s0.4,8.7,4.6,10.3l17.2,6.6
				v41.4h-43.9c-9,0-16.4,7.3-16.4,16.4V463h-43.9c-4.7,0-9.2,2.1-12.3,5.6L238.4,406l8.6-12.9c5,3.6,9.6,7.8,17.4,5.9
				c4.3-1.1,7.8-3.9,9.8-7.9l30-60.1l6.9,2.7c4.1,1.6,8.7-0.4,10.3-4.6s-0.4-8.7-4.6-10.3l-51-19.8v-27.7
				c18.5-14.1,30.5-35.1,33.2-58.1c21.4-1,37.3-18.1,37.3-38.4c0-9.4-3.4-18.4-9.6-25.4v-35.1C326.7,51.2,275.5,0,212.4,0
				S98,51.2,98,114.3c0,0,0,0,0,0v36c-6.2,6.7-9.6,15.4-9.6,24.5c0.1,20.8,16.6,37.8,37.3,38.4c2.8,23.9,15.5,45.5,35.1,59.5v26.4
				c-0.1,0-112.4,43.6-112.5,43.6c-2,0.8-48.4,20.5-48.4,74.8v110c0,10,8.1,18.1,18.1,18.1c293.8,0,136.2,0.1,475.9,0.1
				c4.4,0,8-3.6,8-8c0,0,0,0,0,0V425.8c0-4.4-3.6-8-8-8c-4.4,0-8,3.6-8,8v103.9h-44.3V279.1c0-0.2,0.2-0.4,0.4-0.4c0,0,0,0,0,0h43.7
				c0.1,0,0.2,0.1,0.2,0.2v109.7C486,392.9,489.6,396.5,494,396.5z M289.1,325.3L260.3,383c-0.6-0.4-16.9-12-35.4-25.2l35.4-43.7
				L289.1,325.3z M233.9,383.8l-8.2,12.4H201l-8.2-12.4l20.6-14.6L233.9,383.8z M176.9,301.6v-19.9c11.6,4.9,24,7.4,36.6,7.4
				c12.5,0,24.9-2.7,36.2-8v20.7l-36.4,44.9L176.9,301.6z M320.3,174.8c0,11.7-9,21.4-20.7,22.4v-44.7
				C311.3,153.4,320.3,163.1,320.3,174.8z M125.1,197.1c-11.7-0.9-20.7-10.6-20.7-22.4c0-11.3,9.8-20.2,20.7-22V197.1z M125.4,136.6
				c-3.9,0.4-7.7,1.3-11.4,2.7v-25c0-54.3,44-98.3,98.3-98.3s98.3,44,98.3,98.3v24.3c-3.6-1.3-7.3-2-11.1-2.2v-2.1
				c0-7.4-1.1-7.1-29-37.1c-5-5.4-13.3-6.4-19.5-2.4c-33.3,21.7-73.3,32.1-109.6,29.5C133.8,123.7,126.8,129,125.4,136.6z
				 M141.1,202.9v-62.7c40.2,2.7,83.2-9.1,118.2-31.8c14.4,15.4,22.2,23.6,24.3,26.3c0,82.6,0,65.5,0,70c-1,38-32.1,68.3-70.1,68.4
				C170.4,273.1,141.1,239.7,141.1,202.9L141.1,202.9z M166.3,314.1l35.4,43.7c-11.5,8.2-29.4,20.9-35.4,25.1l-28.8-57.7
				L166.3,314.1z M90,529.6v-95.1c0-4.4-3.6-8-8-8c-4.4,0-8,3.6-8,8c0,0,0,0,0,0v95.1H18.1c-1.2,0-2.1-0.9-2.1-2.1v-110
				c0-43,36.3-59.1,38.5-60l68.1-26.4l30,60.1c2,3.9,5.5,6.8,9.8,7.9c7.6,1.9,12-2.1,17.4-5.9l8.6,12.9l-20.9,123.6L90,529.6z
				 M183.6,529.6l19.9-117.4h19.8l19.9,117.4L183.6,529.6L183.6,529.6z M305.2,529.7h-44.3v-50.4c0-0.2,0.2-0.4,0.4-0.4c0,0,0,0,0,0
				h43.9L305.2,529.7z M365.5,529.7h-44.3V412.6c0-0.2,0.2-0.4,0.4-0.4c0,0,0,0,0,0h43.9L365.5,529.7L365.5,529.7z M425.7,529.7
				h-44.3V345.9c0-0.2,0.2-0.4,0.4-0.4c0,0,0,0,0,0h43.9L425.7,529.7L425.7,529.7z"/>
		</g>
	</g>
</g>
</svg>
